<mxfile host="app.diagrams.net" modified="2021-12-02T07:04:10.711Z" agent="5.0 (Macintosh; Intel Mac OS X 10_15_7) AppleWebKit/537.36 (KHTML, like Gecko) Chrome/96.0.4664.55 Safari/537.36" etag="T3OMnf7gwuZrSyMDmNbD" version="14.4.9" type="github">
  <diagram id="ceKwWt53eYnwDlvL9TrJ" name="第 1 页">
    <mxGraphModel dx="1495" dy="1017" grid="1" gridSize="10" guides="1" tooltips="1" connect="1" arrows="1" fold="1" page="1" pageScale="1" pageWidth="827" pageHeight="1169" math="0" shadow="0">
      <root>
        <mxCell id="0" />
        <mxCell id="1" parent="0" />
        <mxCell id="NciOiVkMBZ5HgO-7tFdr-6" value="&lt;font style=&quot;font-size: 17px&quot;&gt;master&lt;/font&gt;" style="shape=umlLifeline;participant=umlEntity;perimeter=lifelinePerimeter;whiteSpace=wrap;html=1;container=1;collapsible=0;recursiveResize=0;verticalAlign=top;spacingTop=36;outlineConnect=0;sketch=1;" vertex="1" parent="1">
          <mxGeometry x="180" y="230" width="40" height="300" as="geometry" />
        </mxCell>
        <mxCell id="NciOiVkMBZ5HgO-7tFdr-7" value="切出版本发布分支" style="html=1;verticalAlign=bottom;endArrow=block;" edge="1" parent="NciOiVkMBZ5HgO-7tFdr-6" target="NciOiVkMBZ5HgO-7tFdr-8">
          <mxGeometry width="80" relative="1" as="geometry">
            <mxPoint x="20" y="100" as="sourcePoint" />
            <mxPoint x="100" y="100" as="targetPoint" />
          </mxGeometry>
        </mxCell>
        <mxCell id="NciOiVkMBZ5HgO-7tFdr-8" value="&lt;font style=&quot;font-size: 17px&quot;&gt;release/version&lt;/font&gt;" style="shape=umlLifeline;participant=umlEntity;perimeter=lifelinePerimeter;whiteSpace=wrap;html=1;container=1;collapsible=0;recursiveResize=0;verticalAlign=top;spacingTop=36;outlineConnect=0;sketch=1;" vertex="1" parent="1">
          <mxGeometry x="330" y="230" width="40" height="300" as="geometry" />
        </mxCell>
        <mxCell id="NciOiVkMBZ5HgO-7tFdr-9" value="" style="html=1;points=[];perimeter=orthogonalPerimeter;sketch=1;" vertex="1" parent="1">
          <mxGeometry x="600" y="310" width="10" height="220" as="geometry" />
        </mxCell>
        <mxCell id="NciOiVkMBZ5HgO-7tFdr-12" value="按需安装和构建需要发布的包" style="html=1;sketch=1;" vertex="1" parent="1">
          <mxGeometry x="690" y="300" width="190" height="90" as="geometry" />
        </mxCell>
        <mxCell id="NciOiVkMBZ5HgO-7tFdr-13" value="" style="html=1;verticalAlign=bottom;endArrow=block;" edge="1" parent="1">
          <mxGeometry y="20" width="80" relative="1" as="geometry">
            <mxPoint x="610" y="350" as="sourcePoint" />
            <mxPoint x="690" y="350" as="targetPoint" />
            <mxPoint as="offset" />
          </mxGeometry>
        </mxCell>
        <mxCell id="NciOiVkMBZ5HgO-7tFdr-14" value="" style="endArrow=classic;html=1;exitX=0.5;exitY=1;exitDx=0;exitDy=0;entryX=1.1;entryY=0.759;entryDx=0;entryDy=0;entryPerimeter=0;" edge="1" parent="1" source="NciOiVkMBZ5HgO-7tFdr-12" target="NciOiVkMBZ5HgO-7tFdr-9">
          <mxGeometry width="50" height="50" relative="1" as="geometry">
            <mxPoint x="750" y="490" as="sourcePoint" />
            <mxPoint x="800" y="440" as="targetPoint" />
            <Array as="points">
              <mxPoint x="785" y="477" />
            </Array>
          </mxGeometry>
        </mxCell>
        <mxCell id="NciOiVkMBZ5HgO-7tFdr-15" value="&lt;font style=&quot;font-size: 14px&quot;&gt;将过程中产生的commit 信息合并到release/version&lt;/font&gt;" style="text;html=1;strokeColor=none;fillColor=none;align=center;verticalAlign=middle;whiteSpace=wrap;rounded=0;sketch=1;" vertex="1" parent="1">
          <mxGeometry x="630" y="470" width="240" height="60" as="geometry" />
        </mxCell>
        <mxCell id="NciOiVkMBZ5HgO-7tFdr-17" value="&lt;font style=&quot;font-size: 14px&quot;&gt;执行变更检测，&lt;br&gt;看是否有需要发布的包&lt;/font&gt;" style="html=1;verticalAlign=bottom;endArrow=block;" edge="1" parent="1">
          <mxGeometry relative="1" as="geometry">
            <mxPoint x="350" y="380" as="sourcePoint" />
            <mxPoint x="510" y="380" as="targetPoint" />
          </mxGeometry>
        </mxCell>
        <mxCell id="NciOiVkMBZ5HgO-7tFdr-18" value="" style="strokeWidth=2;html=1;shape=mxgraph.flowchart.decision;whiteSpace=wrap;sketch=1;" vertex="1" parent="1">
          <mxGeometry x="510" y="363.75" width="60" height="32.5" as="geometry" />
        </mxCell>
        <mxCell id="NciOiVkMBZ5HgO-7tFdr-19" value="" style="endArrow=classic;html=1;exitX=1;exitY=0.5;exitDx=0;exitDy=0;exitPerimeter=0;entryX=0.1;entryY=0.323;entryDx=0;entryDy=0;entryPerimeter=0;" edge="1" parent="1" source="NciOiVkMBZ5HgO-7tFdr-18" target="NciOiVkMBZ5HgO-7tFdr-9">
          <mxGeometry width="50" height="50" relative="1" as="geometry">
            <mxPoint x="510" y="460" as="sourcePoint" />
            <mxPoint x="598" y="376" as="targetPoint" />
          </mxGeometry>
        </mxCell>
        <mxCell id="NciOiVkMBZ5HgO-7tFdr-20" value="Y" style="text;html=1;align=center;verticalAlign=middle;resizable=0;points=[];autosize=1;" vertex="1" parent="1">
          <mxGeometry x="570" y="360" width="20" height="20" as="geometry" />
        </mxCell>
        <mxCell id="NciOiVkMBZ5HgO-7tFdr-21" value="N" style="endArrow=open;endSize=12;dashed=1;html=1;exitX=0.5;exitY=1;exitDx=0;exitDy=0;exitPerimeter=0;" edge="1" parent="1" source="NciOiVkMBZ5HgO-7tFdr-18" target="NciOiVkMBZ5HgO-7tFdr-8">
          <mxGeometry width="160" relative="1" as="geometry">
            <mxPoint x="290" y="570" as="sourcePoint" />
            <mxPoint x="450" y="570" as="targetPoint" />
          </mxGeometry>
        </mxCell>
        <mxCell id="NciOiVkMBZ5HgO-7tFdr-22" value="&lt;font style=&quot;font-size: 14px&quot;&gt;没有需要发布的包则结束本次ci&lt;/font&gt;" style="text;html=1;strokeColor=none;fillColor=none;align=center;verticalAlign=middle;whiteSpace=wrap;rounded=0;sketch=1;" vertex="1" parent="1">
          <mxGeometry x="370" y="410" width="130" height="20" as="geometry" />
        </mxCell>
        <mxCell id="NciOiVkMBZ5HgO-7tFdr-24" value="" style="endArrow=classic;html=1;exitX=-0.3;exitY=0.923;exitDx=0;exitDy=0;exitPerimeter=0;" edge="1" parent="1" source="NciOiVkMBZ5HgO-7tFdr-9" target="NciOiVkMBZ5HgO-7tFdr-6">
          <mxGeometry width="50" height="50" relative="1" as="geometry">
            <mxPoint x="470" y="630" as="sourcePoint" />
            <mxPoint x="520" y="580" as="targetPoint" />
          </mxGeometry>
        </mxCell>
        <mxCell id="NciOiVkMBZ5HgO-7tFdr-25" value="&lt;font style=&quot;font-size: 14px&quot;&gt;提起MR到master进行合并&lt;/font&gt;" style="text;html=1;strokeColor=none;fillColor=none;align=center;verticalAlign=middle;whiteSpace=wrap;rounded=0;sketch=1;" vertex="1" parent="1">
          <mxGeometry x="380" y="520" width="140" height="30" as="geometry" />
        </mxCell>
      </root>
    </mxGraphModel>
  </diagram>
</mxfile>
